<?xml version="1.0" standalone="no"?>
<!DOCTYPE svg PUBLIC "-//W3C//DTD SVG 20010904//EN"
 "http://www.w3.org/TR/2001/REC-SVG-20010904/DTD/svg10.dtd">
<svg version="1.0" xmlns="http://www.w3.org/2000/svg"
 width="449.000000pt" height="483.000000pt" viewBox="0 0 449.000000 483.000000"
 preserveAspectRatio="xMidYMid meet">
<metadata>
Created by potrace 1.16, written by Peter Selinger 2001-2019
</metadata>
<g transform="translate(0.000000,483.000000) scale(0.100000,-0.100000)"
fill="#ffffff" stroke="none">
<path d="M2015 4789 c-632 -77 -1166 -385 -1536 -885 -396 -536 -522 -1203
-355 -1869 56 -220 154 -438 290 -643 235 -354 578 -641 962 -803 103 -44 250
-94 351 -119 35 -9 44 -16 48 -38 40 -192 200 -341 401 -372 237 -37 485 128
544 361 12 46 12 46 68 59 104 23 285 91 417 155 938 458 1425 1513 1164 2522
-95 370 -277 696 -542 970 -424 438 -987 677 -1586 672 -86 -1 -187 -5 -226
-10z m510 -829 c277 -62 498 -183 690 -375 197 -196 319 -425 381 -715 26
-119 26 -391 0 -510 -109 -507 -432 -877 -921 -1053 -138 -49 -225 -62 -430
-62 -148 0 -209 4 -275 19 -484 105 -888 469 -1033 931 -50 159 -61 239 -61
420 0 181 11 261 61 420 131 414 474 757 888 888 77 24 200 51 275 61 82 10
337 -4 425 -24z"/>
</g>
</svg>
